<?xml version="1.0" encoding="UTF-8"?>
<svg width="17px" height="17px" viewBox="0 0 17 17" version="1.1" xmlns="http://www.w3.org/2000/svg" xmlns:xlink="http://www.w3.org/1999/xlink">
    <!-- Generator: Sketch 44.1 (41455) - http://www.bohemiancoding.com/sketch -->
    <title>Facebook Icon</title>
    <desc>Created with Sketch.</desc>
    <defs></defs>
    <g id="Symbols" stroke="none" stroke-width="1" fill="none" fill-rule="evenodd">
        <g id="Facebook-Icon" fill-rule="nonzero" fill="#e0e8ee">
            <g id="1496702571_46-facebook-01" transform="translate(1.500000, 1.500000)">
                <path d="M6.94509804,0.056 C3.21176471,0.056 0.192156863,3.136 0.192156863,6.944 C0.192156863,10.752 3.21176471,13.832 6.94509804,13.832 C10.6784314,13.832 13.7254902,10.752 13.7254902,6.944 C13.7254902,3.136 10.6784314,0.056 6.94509804,0.056 Z M8.75686275,6.916 L7.57647059,6.916 C7.57647059,8.82 7.57647059,11.172 7.57647059,11.172 L5.84705882,11.172 C5.84705882,11.172 5.84705882,8.848 5.84705882,6.916 L5.02352941,6.916 L5.02352941,5.404 L5.84705882,5.404 L5.84705882,4.424 C5.84705882,3.724 6.17647059,2.632 7.60392157,2.632 L8.89411765,2.632 L8.89411765,4.088 C8.89411765,4.088 8.1254902,4.088 7.96078431,4.088 C7.79607843,4.088 7.60392157,4.172 7.60392157,4.508 L7.60392157,5.404 L8.92156863,5.404 L8.75686275,6.916 Z" id="Shape"></path>
            </g>
        </g>
    </g>
</svg>